<svg width="128" height="128" viewBox="0 0 128 128" fill="none" xmlns="http://www.w3.org/2000/svg">
<rect width="128" height="128" rx="20" fill="#0043ce"/>
<rect x="8" y="8" width="112" height="112" rx="16" fill="url(#gradient)"/>

<!-- Document lines -->
<path d="M24 24h80M24 32h72M24 40h80M24 48h64M24 56h76M24 64h56M24 72h68M24 80h48M24 88h60M24 96h44" 
      stroke="white" stroke-width="3" stroke-linecap="round"/>

<!-- Navigation arrow -->
<path d="M84 68l16 12-16 12" stroke="white" stroke-width="4" stroke-linecap="round" stroke-linejoin="round"/>

<!-- Status indicators -->
<circle cx="96" cy="32" r="4" fill="#ffc107"/>
<circle cx="96" cy="42" r="4" fill="#28a745"/>
<circle cx="96" cy="52" r="4" fill="#17a2b8"/>

<!-- Automation gear -->
<g transform="translate(88, 88)">
<circle cx="8" cy="8" r="6" fill="none" stroke="white" stroke-width="2"/>
<circle cx="8" cy="8" r="2" fill="white"/>
<path d="M8 2v2M8 12v2M14 8h-2M4 8H2M12.24 3.76l-1.41 1.41M5.17 10.83l-1.41 1.41M12.24 12.24l-1.41-1.41M5.17 5.17l-1.41-1.41" 
      stroke="white" stroke-width="1.5" stroke-linecap="round"/>
</g>

<defs>
<linearGradient id="gradient" x1="0%" y1="0%" x2="100%" y2="100%">
<stop offset="0%" style="stop-color:#0056ff;stop-opacity:1" />
<stop offset="50%" style="stop-color:#0043ce;stop-opacity:1" />
<stop offset="100%" style="stop-color:#003bb3;stop-opacity:1" />
</linearGradient>
</defs>
</svg>